<mxfile host="app.diagrams.net" modified="2024-07-10T19:40:03.500Z" agent="Mozilla/5.0 (X11; Linux x86_64) AppleWebKit/537.36 (KHTML, like Gecko) Chrome/125.0.0.0 Safari/537.36" etag="ih_k1C4gSX57h6CVtmEn" version="24.2.1" type="device">
  <diagram name="Page-1" id="GcMDtec1YyRWMdbpPKq7">
    <mxGraphModel dx="1096" dy="1667" grid="1" gridSize="10" guides="1" tooltips="1" connect="1" arrows="1" fold="1" page="1" pageScale="1" pageWidth="827" pageHeight="1169" math="0" shadow="0">
      <root>
        <mxCell id="0" />
        <mxCell id="1" parent="0" />
        <mxCell id="1psI2NaKW_PAm95EMRXX-45" style="edgeStyle=orthogonalEdgeStyle;rounded=0;orthogonalLoop=1;jettySize=auto;html=1;entryX=0.5;entryY=0;entryDx=0;entryDy=0;" edge="1" parent="1" source="1psI2NaKW_PAm95EMRXX-12" target="1psI2NaKW_PAm95EMRXX-41">
          <mxGeometry relative="1" as="geometry">
            <mxPoint x="390" y="420" as="targetPoint" />
          </mxGeometry>
        </mxCell>
        <mxCell id="1psI2NaKW_PAm95EMRXX-12" value="" style="rounded=0;whiteSpace=wrap;html=1;shadow=0;fillColor=#7EA6E0;" vertex="1" parent="1">
          <mxGeometry y="40" width="780" height="320" as="geometry" />
        </mxCell>
        <mxCell id="1psI2NaKW_PAm95EMRXX-2" value="" style="whiteSpace=wrap;html=1;aspect=fixed;" vertex="1" parent="1">
          <mxGeometry x="60" y="120" width="190" height="190" as="geometry" />
        </mxCell>
        <mxCell id="1psI2NaKW_PAm95EMRXX-3" value="" style="whiteSpace=wrap;html=1;aspect=fixed;" vertex="1" parent="1">
          <mxGeometry x="290" y="120" width="190" height="190" as="geometry" />
        </mxCell>
        <mxCell id="1psI2NaKW_PAm95EMRXX-37" style="edgeStyle=orthogonalEdgeStyle;rounded=0;orthogonalLoop=1;jettySize=auto;html=1;exitX=0.67;exitY=1;exitDx=0;exitDy=0;exitPerimeter=0;" edge="1" parent="1" source="1psI2NaKW_PAm95EMRXX-4">
          <mxGeometry relative="1" as="geometry">
            <mxPoint x="390" y="40" as="targetPoint" />
          </mxGeometry>
        </mxCell>
        <mxCell id="1psI2NaKW_PAm95EMRXX-4" value="" style="points=[[0.35,0,0],[0.98,0.51,0],[1,0.71,0],[0.67,1,0],[0,0.795,0],[0,0.65,0]];verticalLabelPosition=bottom;sketch=0;html=1;verticalAlign=top;aspect=fixed;align=center;pointerEvents=1;shape=mxgraph.cisco19.user;fillColor=#005073;strokeColor=none;" vertex="1" parent="1">
          <mxGeometry x="330" y="-170" width="90" height="90" as="geometry" />
        </mxCell>
        <mxCell id="1psI2NaKW_PAm95EMRXX-5" value="" style="whiteSpace=wrap;html=1;aspect=fixed;" vertex="1" parent="1">
          <mxGeometry x="520" y="120" width="190" height="190" as="geometry" />
        </mxCell>
        <mxCell id="1psI2NaKW_PAm95EMRXX-14" value="Nginx API Gateway" style="text;html=1;align=center;verticalAlign=middle;resizable=0;points=[];autosize=1;strokeColor=none;fillColor=none;" vertex="1" parent="1">
          <mxGeometry y="40" width="130" height="30" as="geometry" />
        </mxCell>
        <mxCell id="1psI2NaKW_PAm95EMRXX-16" value="&lt;h1 style=&quot;box-sizing: border-box; margin: 20px 0px 10px; font-size: 36px; font-family: &amp;quot;Helvetica Neue&amp;quot;, Helvetica, Arial, sans-serif; font-weight: 500; line-height: 1.1; color: rgb(51, 51, 51); text-align: start; text-wrap: wrap; background-color: rgb(255, 255, 255);&quot;&gt;&lt;br&gt;&lt;/h1&gt;" style="text;html=1;align=center;verticalAlign=middle;resizable=0;points=[];autosize=1;strokeColor=none;fillColor=none;" vertex="1" parent="1">
          <mxGeometry x="680" y="333" width="20" height="80" as="geometry" />
        </mxCell>
        <mxCell id="1psI2NaKW_PAm95EMRXX-17" value="" style="strokeWidth=2;html=1;shape=mxgraph.flowchart.database;whiteSpace=wrap;" vertex="1" parent="1">
          <mxGeometry x="120" y="220" width="40" height="40" as="geometry" />
        </mxCell>
        <mxCell id="1psI2NaKW_PAm95EMRXX-18" value="user database" style="text;html=1;align=center;verticalAlign=middle;resizable=0;points=[];autosize=1;strokeColor=none;fillColor=none;" vertex="1" parent="1">
          <mxGeometry x="90" y="260" width="100" height="30" as="geometry" />
        </mxCell>
        <mxCell id="1psI2NaKW_PAm95EMRXX-26" value="" style="strokeWidth=2;html=1;shape=mxgraph.flowchart.database;whiteSpace=wrap;" vertex="1" parent="1">
          <mxGeometry x="592.5" y="220" width="40" height="40" as="geometry" />
        </mxCell>
        <mxCell id="1psI2NaKW_PAm95EMRXX-27" value="user database" style="text;html=1;align=center;verticalAlign=middle;resizable=0;points=[];autosize=1;strokeColor=none;fillColor=none;" vertex="1" parent="1">
          <mxGeometry x="562.5" y="260" width="100" height="30" as="geometry" />
        </mxCell>
        <mxCell id="1psI2NaKW_PAm95EMRXX-30" value="" style="rounded=0;whiteSpace=wrap;html=1;" vertex="1" parent="1">
          <mxGeometry x="572.5" y="137.5" width="85" height="50" as="geometry" />
        </mxCell>
        <mxCell id="1psI2NaKW_PAm95EMRXX-28" value="Notifications&amp;nbsp;&lt;div&gt;service&lt;/div&gt;" style="text;html=1;align=center;verticalAlign=middle;resizable=0;points=[];autosize=1;strokeColor=none;fillColor=none;" vertex="1" parent="1">
          <mxGeometry x="569.5" y="140" width="90" height="40" as="geometry" />
        </mxCell>
        <mxCell id="1psI2NaKW_PAm95EMRXX-31" value="" style="rounded=0;whiteSpace=wrap;html=1;" vertex="1" parent="1">
          <mxGeometry x="343" y="185" width="85" height="50" as="geometry" />
        </mxCell>
        <mxCell id="1psI2NaKW_PAm95EMRXX-32" value="Realtime&lt;div&gt;service&lt;/div&gt;" style="text;html=1;align=center;verticalAlign=middle;resizable=0;points=[];autosize=1;strokeColor=none;fillColor=none;" vertex="1" parent="1">
          <mxGeometry x="350" y="187.5" width="70" height="40" as="geometry" />
        </mxCell>
        <mxCell id="1psI2NaKW_PAm95EMRXX-34" value="" style="rounded=0;whiteSpace=wrap;html=1;" vertex="1" parent="1">
          <mxGeometry x="103" y="140" width="85" height="50" as="geometry" />
        </mxCell>
        <mxCell id="1psI2NaKW_PAm95EMRXX-33" value="&lt;div&gt;Authentication&lt;/div&gt;&lt;div&gt;service&lt;/div&gt;" style="text;html=1;align=center;verticalAlign=middle;resizable=0;points=[];autosize=1;strokeColor=none;fillColor=none;" vertex="1" parent="1">
          <mxGeometry x="95" y="142.5" width="100" height="40" as="geometry" />
        </mxCell>
        <mxCell id="1psI2NaKW_PAm95EMRXX-35" value="* db per service pattern" style="text;html=1;align=center;verticalAlign=middle;resizable=0;points=[];autosize=1;strokeColor=none;fillColor=none;" vertex="1" parent="1">
          <mxGeometry x="634" y="330" width="150" height="30" as="geometry" />
        </mxCell>
        <mxCell id="1psI2NaKW_PAm95EMRXX-36" style="edgeStyle=orthogonalEdgeStyle;rounded=0;orthogonalLoop=1;jettySize=auto;html=1;entryX=0.67;entryY=1;entryDx=0;entryDy=0;entryPerimeter=0;" edge="1" parent="1" source="1psI2NaKW_PAm95EMRXX-12" target="1psI2NaKW_PAm95EMRXX-4">
          <mxGeometry relative="1" as="geometry" />
        </mxCell>
        <mxCell id="1psI2NaKW_PAm95EMRXX-47" style="edgeStyle=orthogonalEdgeStyle;rounded=0;orthogonalLoop=1;jettySize=auto;html=1;exitX=0.5;exitY=0;exitDx=0;exitDy=0;entryX=0.5;entryY=1;entryDx=0;entryDy=0;" edge="1" parent="1" source="1psI2NaKW_PAm95EMRXX-41" target="1psI2NaKW_PAm95EMRXX-12">
          <mxGeometry relative="1" as="geometry" />
        </mxCell>
        <mxCell id="1psI2NaKW_PAm95EMRXX-41" value="RabbitMQ&amp;nbsp;" style="rounded=0;whiteSpace=wrap;html=1;" vertex="1" parent="1">
          <mxGeometry x="297.5" y="430" width="185" height="60" as="geometry" />
        </mxCell>
        <mxCell id="1psI2NaKW_PAm95EMRXX-51" value="client" style="text;html=1;align=center;verticalAlign=middle;resizable=0;points=[];autosize=1;strokeColor=none;fillColor=none;" vertex="1" parent="1">
          <mxGeometry x="320" y="-100" width="50" height="30" as="geometry" />
        </mxCell>
      </root>
    </mxGraphModel>
  </diagram>
</mxfile>
